<svg xmlns="http://www.w3.org/2000/svg" xmlns:xlink="http://www.w3.org/1999/xlink" width="379" zoomAndPan="magnify" viewBox="0 0 284.25 97.5" height="130" preserveAspectRatio="xMidYMid meet" version="1.2"><defs><clipPath id="9e92e1d64a"><path d="M 0.351562 5 L 72 5 L 72 80 L 0.351562 80 Z M 0.351562 5 "/></clipPath><clipPath id="ec70e1ab14"><path d="M 115 19 L 282.972656 19 L 282.972656 24 L 115 24 Z M 115 19 "/></clipPath></defs><g id="980fd83fcd"><path style=" stroke:none;fill-rule:nonzero;fill:#ffffff;fill-opacity:1;" d="M 79.21875 3.359375 L 75.5625 6.714844 L 78.695312 10.371094 C 80.414062 12.386719 82.277344 14.25 82.726562 14.402344 C 83.246094 14.625 85.039062 13.132812 86.753906 11.191406 C 89.8125 7.609375 90.558594 5.96875 89.140625 5.96875 C 88.769531 5.96875 87.5 4.625 86.457031 2.984375 C 85.335938 1.34375 84.070312 0 83.621094 0 C 83.171875 0.0742188 81.160156 1.566406 79.21875 3.359375 Z M 79.21875 3.359375 "/><path style=" stroke:none;fill-rule:nonzero;fill:#ffffff;fill-opacity:1;" d="M 109.960938 2.089844 L 105.929688 4.179688 L 106.15625 15.371094 C 106.304688 21.488281 106.753906 26.789062 107.125 27.160156 C 107.5 27.609375 108.46875 27.535156 109.585938 26.9375 C 113.320312 24.921875 117.496094 2.238281 114.511719 0.375 C 114.214844 0.148438 112.125 0.96875 109.960938 2.089844 Z M 109.960938 2.089844 "/><path style=" stroke:none;fill-rule:nonzero;fill:#ffffff;fill-opacity:1;" d="M 132.195312 3.359375 L 128.539062 6.714844 L 131.675781 10.371094 C 133.390625 12.386719 135.257812 14.25 135.703125 14.402344 C 136.226562 14.625 138.015625 13.132812 139.734375 11.191406 C 142.792969 7.609375 143.539062 5.96875 142.121094 5.96875 C 141.746094 5.96875 140.480469 4.625 139.433594 2.984375 C 138.316406 1.34375 137.046875 0 136.597656 0 C 136.152344 0.0742188 134.136719 1.566406 132.195312 3.359375 Z M 132.195312 3.359375 "/><path style=" stroke:none;fill-rule:nonzero;fill:#ffffff;fill-opacity:1;" d="M 214.351562 3.359375 C 212.335938 5.148438 210.769531 6.714844 210.769531 6.9375 C 210.769531 7.164062 212.410156 9.101562 214.425781 11.265625 L 218.007812 15.148438 L 219.796875 13.058594 C 220.765625 11.863281 222.410156 10.148438 223.378906 9.179688 L 225.171875 7.460938 L 222.410156 4.476562 C 220.917969 2.835938 219.722656 1.121094 219.722656 0.746094 C 219.722656 -0.746094 217.78125 0.148438 214.351562 3.359375 Z M 214.351562 3.359375 "/><g clip-rule="nonzero" clip-path="url(#9e92e1d64a)"><path style=" stroke:none;fill-rule:nonzero;fill:#ffffff;fill-opacity:1;" d="M 39.148438 7.089844 C 38.703125 8.28125 39 8.804688 40.714844 9.625 C 41.910156 10.222656 42.878906 11.265625 42.878906 11.863281 C 42.878906 12.535156 38.851562 17.535156 33.851562 22.980469 C 24.972656 32.757812 19.449219 37.683594 18.179688 36.859375 C 17.433594 36.414062 17.433594 23.953125 18.179688 20.519531 C 18.554688 18.65625 19.003906 18.207031 21.242188 18.058594 C 23.628906 17.832031 24.898438 16.9375 24.972656 15.445312 C 24.972656 15.148438 23.703125 14.328125 22.210938 13.730469 C 20.644531 13.058594 16.6875 11.417969 13.332031 10 C 6.988281 7.386719 3.480469 6.863281 1.988281 8.355469 C 0.496094 9.847656 0.945312 10.746094 3.707031 12.238281 C 5.273438 13.058594 6.617188 14.476562 6.914062 15.59375 C 7.210938 16.640625 7.4375 27.757812 7.4375 40.292969 C 7.4375 65.214844 7.136719 67.230469 3.332031 69.765625 C 0.945312 71.410156 -0.0234375 73.050781 0.871094 73.945312 C 1.242188 74.320312 4.003906 73.5 7.0625 72.15625 C 11.839844 70.140625 13.03125 69.171875 15.121094 66.109375 L 17.511719 62.53125 L 17.511719 51.410156 C 17.511719 35.441406 16.539062 34.996094 38.777344 62.304688 C 52.058594 78.648438 53.027344 79.316406 63.773438 79.394531 C 69.742188 79.46875 70.859375 79.316406 71.085938 78.199219 C 71.234375 77.304688 70.265625 76.632812 67.429688 75.738281 C 65.339844 74.992188 62.207031 73.199219 60.5625 71.707031 C 58.101562 69.46875 32.433594 38.800781 30.71875 36.039062 C 30.417969 35.519531 31.539062 33.875 33.328125 32.160156 C 35.121094 30.519531 38.925781 26.488281 41.761719 23.132812 C 44.671875 19.847656 49.296875 15.445312 52.058594 13.355469 C 59.667969 7.761719 58.550781 6.34375 45.9375 5.820312 C 40.269531 5.597656 39.671875 5.746094 39.148438 7.089844 Z M 39.148438 7.089844 "/></g><path style=" stroke:none;fill-rule:nonzero;fill:#ffffff;fill-opacity:1;" d="M 63.398438 20.445312 C 62.578125 21.042969 62.207031 21.863281 62.503906 22.683594 C 62.953125 23.726562 65.117188 23.878906 83.472656 23.878906 C 100.78125 23.878906 103.992188 23.726562 104.363281 22.757812 C 104.589844 22.160156 104.214844 21.191406 103.617188 20.519531 C 102.050781 18.953125 65.5625 18.804688 63.398438 20.445312 Z M 63.398438 20.445312 "/><g clip-rule="nonzero" clip-path="url(#ec70e1ab14)"><path style=" stroke:none;fill-rule:nonzero;fill:#ffffff;fill-opacity:1;" d="M 116.378906 20.445312 C 115.558594 21.042969 115.183594 21.863281 115.484375 22.683594 C 115.929688 23.804688 122.496094 23.878906 197.488281 23.878906 C 242.332031 23.878906 279.789062 23.652344 280.761719 23.429688 C 281.953125 23.058594 282.402344 22.460938 282.253906 21.339844 L 282.027344 19.773438 L 199.875 19.550781 C 131.601562 19.402344 117.570312 19.550781 116.378906 20.445312 Z M 116.378906 20.445312 "/></g><path style=" stroke:none;fill-rule:nonzero;fill:#ffffff;fill-opacity:1;" d="M 173.609375 27.90625 C 173.160156 28.953125 171.296875 30.667969 169.578125 31.785156 C 162.042969 36.488281 158.3125 41.5625 158.3125 47.308594 C 158.3125 53.277344 161.222656 57.679688 166.746094 59.992188 L 169.355469 61.035156 L 165.027344 62.976562 C 160.253906 65.066406 159.28125 66.484375 160.851562 69.320312 C 162.863281 72.828125 165.699219 73.796875 175.773438 74.320312 C 186.367188 74.914062 188.085938 75.363281 189.277344 77.976562 C 190.472656 80.585938 189.128906 83.125 185.621094 84.988281 C 181.667969 86.929688 166.96875 90.136719 158.910156 90.734375 C 152.046875 91.183594 140.925781 89.839844 137.644531 88.046875 C 133.765625 85.960938 131.75 78.125 134.359375 75.289062 C 135.480469 74.019531 135.480469 73.945312 133.6875 73.5 C 129.734375 72.453125 123.464844 77.976562 123.464844 82.378906 C 123.464844 85.882812 127.121094 90.585938 131.523438 92.824219 C 140.40625 97.300781 155.625 98.121094 171.296875 94.914062 C 180.472656 93.046875 185.996094 90.363281 190.996094 85.511719 C 196.964844 79.617188 198.007812 74.019531 193.832031 69.84375 C 191.292969 67.304688 187.785156 66.410156 179.953125 66.410156 C 169.058594 66.410156 167.417969 64.097656 175.773438 60.738281 C 185.621094 56.710938 189.800781 51.410156 189.875 42.753906 C 189.875 38.351562 189.726562 38.054688 187.113281 35.890625 C 185.621094 34.695312 182.488281 32.609375 180.175781 31.414062 C 177.863281 30.144531 175.625 28.429688 175.25 27.535156 C 174.503906 25.96875 174.503906 25.96875 173.609375 27.90625 Z M 177.640625 37.980469 C 180.472656 40.742188 181.667969 44.097656 181.667969 49.171875 C 181.667969 53.054688 181.445312 53.800781 179.726562 55.140625 C 174.730469 59.097656 167.640625 52.753906 166.894531 43.652344 C 166.59375 39.996094 166.671875 39.84375 169.730469 37.605469 C 173.160156 34.921875 174.652344 34.996094 177.640625 37.980469 Z M 177.640625 37.980469 "/><path style=" stroke:none;fill-rule:nonzero;fill:#ffffff;fill-opacity:1;" d="M 83.171875 27.683594 C 83.171875 29.25 80.636719 31.414062 75.933594 33.949219 C 73.695312 35.144531 71.308594 37.160156 70.265625 38.726562 C 66.457031 44.621094 67.128906 45.589844 73.769531 43.652344 C 77.503906 42.53125 77.949219 42.234375 77.949219 40.367188 C 77.949219 39.25 78.324219 37.980469 78.84375 37.457031 C 79.816406 36.488281 83.769531 36.265625 85.1875 37.160156 C 86.457031 37.980469 87.648438 41.488281 87.648438 44.398438 C 87.648438 46.5625 87.351562 47.082031 85.636719 47.457031 C 81.980469 48.351562 73.546875 52.902344 70.488281 55.664062 C 68.175781 57.753906 67.503906 58.949219 67.503906 60.738281 C 67.503906 64.023438 70.039062 67.828125 73.175781 69.09375 C 75.785156 70.214844 76.085938 70.140625 81.457031 67.601562 C 87.351562 64.769531 87.203125 64.691406 88.023438 69.691406 C 88.246094 71.257812 89.140625 74.691406 89.964844 77.304688 C 91.605469 82.75 91.902344 82.824219 98.84375 80.960938 C 102.796875 79.914062 105.109375 78.125 104.515625 76.484375 C 104.214844 75.660156 103.84375 75.660156 101.304688 76.40625 C 98.320312 77.378906 97.796875 74.914062 97.351562 56.335938 C 96.828125 35.964844 96.753906 35.742188 89.964844 32.457031 C 87.425781 31.265625 85.410156 30.144531 85.410156 29.847656 C 85.410156 29.625 84.890625 28.726562 84.292969 27.90625 C 83.398438 26.789062 83.246094 26.714844 83.171875 27.683594 Z M 87.5 57.15625 C 87.128906 61.933594 85.859375 63.5 82.351562 63.648438 L 79.816406 63.796875 L 80.039062 60.441406 C 80.1875 57.828125 80.785156 56.632812 82.5 54.992188 C 83.695312 53.875 85.410156 52.976562 86.234375 52.976562 C 87.726562 52.976562 87.800781 53.277344 87.5 57.15625 Z M 87.5 57.15625 "/><path style=" stroke:none;fill-rule:nonzero;fill:#ffffff;fill-opacity:1;" d="M 136.152344 27.683594 C 136.152344 29.25 133.613281 31.414062 128.914062 33.949219 C 126.675781 35.144531 124.289062 37.160156 123.242188 38.726562 C 119.4375 44.621094 120.109375 45.589844 126.75 43.652344 C 130.480469 42.53125 130.929688 42.234375 130.929688 40.367188 C 130.929688 39.25 131.300781 37.980469 131.824219 37.457031 C 132.792969 36.488281 136.75 36.265625 138.167969 37.160156 C 139.433594 37.980469 140.628906 41.488281 140.628906 44.398438 C 140.628906 46.5625 140.328125 47.082031 138.613281 47.457031 C 134.957031 48.351562 126.527344 52.902344 123.464844 55.664062 C 121.152344 57.753906 120.480469 58.949219 120.480469 60.738281 C 120.480469 64.023438 123.019531 67.828125 126.152344 69.09375 C 128.765625 70.214844 129.0625 70.140625 134.433594 67.601562 C 140.328125 64.769531 140.179688 64.691406 141 69.691406 C 141.226562 71.257812 142.121094 74.691406 142.941406 77.304688 C 144.582031 82.75 144.882812 82.824219 151.820312 80.960938 C 155.777344 79.914062 158.089844 78.125 157.492188 76.484375 C 157.195312 75.660156 156.820312 75.660156 154.285156 76.40625 C 151.296875 77.378906 150.777344 74.914062 150.328125 56.335938 C 149.804688 35.964844 149.730469 35.742188 142.941406 32.457031 C 140.40625 31.265625 138.390625 30.144531 138.390625 29.847656 C 138.390625 29.625 137.867188 28.726562 137.269531 27.90625 C 136.375 26.789062 136.226562 26.714844 136.152344 27.683594 Z M 140.480469 57.15625 C 140.105469 61.933594 138.835938 63.5 135.332031 63.648438 L 132.792969 63.796875 L 133.015625 60.441406 C 133.167969 57.828125 133.765625 56.632812 135.480469 54.992188 C 136.671875 53.875 138.390625 52.976562 139.210938 52.976562 C 140.703125 52.976562 140.777344 53.277344 140.480469 57.15625 Z M 140.480469 57.15625 "/><path style=" stroke:none;fill-rule:nonzero;fill:#ffffff;fill-opacity:1;" d="M 240.316406 32.609375 C 239.945312 33.429688 240.464844 34.398438 241.660156 35.367188 C 242.855469 36.339844 244.570312 39.621094 246.136719 43.652344 C 250.765625 55.738281 254.792969 68.050781 254.792969 69.917969 C 254.792969 71.109375 252.925781 74.394531 250.015625 78.273438 C 244.421875 85.882812 243.601562 87.300781 243.601562 89.914062 C 243.601562 92.078125 245.019531 92.898438 247.703125 92.226562 C 249.121094 91.855469 249.570312 91.257812 249.570312 89.691406 C 249.570312 88.421875 251.136719 85.214844 253.523438 81.632812 C 255.6875 78.347656 258.671875 73.125 260.015625 70.066406 C 266.433594 56.1875 274.195312 41.1875 276.359375 38.503906 C 277.625 36.9375 278.671875 35.144531 278.671875 34.621094 C 278.671875 32.683594 273.746094 32.457031 266.957031 34.101562 C 264.417969 34.695312 264.792969 37.011719 267.476562 37.53125 C 268.746094 37.832031 269.714844 38.503906 269.714844 39.097656 C 269.714844 40.367188 262.480469 57.53125 261.582031 58.425781 C 260.910156 59.097656 255.539062 44.398438 255.316406 41.261719 C 255.242188 39.769531 255.6875 39.023438 257.03125 38.277344 C 258.078125 37.757812 258.898438 37.011719 258.824219 36.5625 C 258.597656 34.621094 258.449219 34.324219 257.253906 34.324219 C 256.507812 34.324219 253.75 33.652344 251.210938 32.832031 C 245.242188 30.964844 240.988281 30.890625 240.316406 32.609375 Z M 240.316406 32.609375 "/><path style=" stroke:none;fill-rule:nonzero;fill:#ffffff;fill-opacity:1;" d="M 203.308594 33.128906 C 198.007812 34.027344 196.667969 35.59375 199.875 37.234375 C 202.335938 38.578125 202.5625 39.695312 202.5625 52.457031 C 202.5625 64.769531 203.082031 66.558594 207.558594 68.347656 C 214.648438 71.335938 227.929688 66.484375 232.707031 59.097656 C 234.347656 56.558594 234.570312 55.441406 234.796875 46.261719 L 235.019531 36.1875 L 230.542969 36.339844 C 222.855469 36.5625 219.574219 37.234375 219.871094 38.578125 C 220.019531 39.25 221.289062 40.21875 222.707031 40.667969 L 225.320312 41.5625 L 225.320312 59.992188 L 222.78125 61.707031 C 219.648438 63.871094 216.066406 63.871094 213.453125 61.859375 L 211.515625 60.367188 L 211.515625 32.085938 L 209.875 32.160156 C 208.902344 32.234375 205.992188 32.609375 203.308594 33.128906 Z M 203.308594 33.128906 "/></g></svg>
