<svg xmlns="http://www.w3.org/2000/svg" width="320" height="440" viewBox="0 0 320 440" preserveAspectRatio="xMidYMid meet">
  <defs>
    <linearGradient id="bg" x1="0" y1="0" x2="1" y2="1">
      <stop offset="0%" stop-color="#0f172a"/>
      <stop offset="100%" stop-color="#1e293b"/>
    </linearGradient>
    <linearGradient id="glow" x1="0" y1="0" x2="0" y2="1">
      <stop offset="0%" stop-color="#22d3ee" stop-opacity="0.25"/>
      <stop offset="100%" stop-color="#10b981" stop-opacity="0.15"/>
    </linearGradient>
  </defs>
  <rect x="0" y="0" width="320" height="440" rx="18" fill="url(#bg)"/>
  <rect x="8" y="8" width="304" height="424" rx="14" fill="none" stroke="url(#glow)" stroke-width="2"/>
  <g transform="translate(160 200)">
    <circle cx="0" cy="0" r="60" fill="#0ea5e9" fill-opacity="0.08"/>
    <path d="M-6 -32 C -28 -10 -20 10 -6 22 C 8 34 20 48 6 64 C 30 60 60 38 60 8 C 60 -22 32 -44 6 -32 Z" fill="#34d399" fill-opacity="0.85"/>
    <path d="M-4 18 C 10 10 28 6 40 6" stroke="#bbf7d0" stroke-width="3" stroke-linecap="round" opacity="0.7"/>
  </g>
  <g transform="translate(160 340)" text-anchor="middle" font-family="system-ui, -apple-system, Segoe UI, Roboto, Ubuntu, Cantarell, Noto Sans, Arial">
    <text x="0" y="0" font-size="14" fill="#a3e635" opacity="0.9">Imagem indisponível</text>
    <text x="0" y="20" font-size="12" fill="#cbd5e1" opacity="0.8">Ka'aguy</text>
  </g>
</svg>
